<?xml version="1.0" encoding="UTF-8" ?>
<!DOCTYPE svg PUBLIC "-//W3C//DTD SVG 1.1//EN" "http://www.w3.org/Graphics/SVG/1.1/DTD/svg11.dtd">
<svg width="190pt" height="190pt" viewBox="0 0 190 190" version="1.1" xmlns="http://www.w3.org/2000/svg">
<g id="#3847d6ff">
<path fill="#3847d6" opacity="1.00" d=" M 9.69 74.68 C 38.02 54.29 66.39 33.95 94.76 13.60 C 122.89 34.30 151.06 54.94 179.16 75.67 C 176.75 82.83 174.37 90.00 172.10 97.20 C 172.26 96.65 172.57 95.55 172.73 95.00 C 120.56 94.99 68.40 95.00 16.23 95.00 C 16.33 95.40 16.53 96.20 16.63 96.61 L 16.85 97.53 C 14.62 89.86 12.11 82.29 9.69 74.68 Z" />
</g>
<g id="#eaf126ff">
<path fill="#eaf126" opacity="1.00" d=" M 16.23 95.00 C 68.40 95.00 120.56 94.99 172.73 95.00 C 172.57 95.55 172.26 96.65 172.10 97.20 C 163.60 123.13 154.85 148.99 146.43 174.95 C 111.43 174.97 76.42 174.92 41.43 174.50 C 33.14 148.54 24.81 122.60 16.63 96.61 C 16.53 96.20 16.33 95.40 16.23 95.00 Z" />
</g>
</svg>
